<mxfile host="app.diagrams.net" agent="Mozilla/5.0 (Windows NT 10.0; Win64; x64) AppleWebKit/537.36 (KHTML, like Gecko) Chrome/134.0.0.0 Safari/537.36" version="26.1.0">
  <diagram name="1 oldal" id="dT8HZiYiocx8Erbl3MPV">
    <mxGraphModel dx="1034" dy="446" grid="1" gridSize="10" guides="1" tooltips="1" connect="1" arrows="1" fold="1" page="1" pageScale="1" pageWidth="827" pageHeight="1169" math="0" shadow="0">
      <root>
        <mxCell id="0" />
        <mxCell id="1" parent="0" />
        <mxCell id="GFUR7dcZB_Q8cwkUKv_H-1" value="&lt;b&gt;Szobakulcs&lt;/b&gt;" style="rounded=0;whiteSpace=wrap;html=1;" vertex="1" parent="1">
          <mxGeometry x="520" y="180" width="120" height="60" as="geometry" />
        </mxCell>
        <mxCell id="GFUR7dcZB_Q8cwkUKv_H-2" value="&lt;b&gt;VendÃ©g&lt;/b&gt;" style="rounded=0;whiteSpace=wrap;html=1;" vertex="1" parent="1">
          <mxGeometry x="120" y="180" width="120" height="60" as="geometry" />
        </mxCell>
        <mxCell id="GFUR7dcZB_Q8cwkUKv_H-3" value="&lt;u&gt;vendeg&lt;/u&gt;" style="ellipse;whiteSpace=wrap;html=1;" vertex="1" parent="1">
          <mxGeometry x="40" y="300" width="70" height="40" as="geometry" />
        </mxCell>
        <mxCell id="GFUR7dcZB_Q8cwkUKv_H-4" value="szobaszam" style="ellipse;whiteSpace=wrap;html=1;" vertex="1" parent="1">
          <mxGeometry x="240" y="300" width="70" height="40" as="geometry" />
        </mxCell>
        <mxCell id="GFUR7dcZB_Q8cwkUKv_H-5" value="nev" style="ellipse;whiteSpace=wrap;html=1;" vertex="1" parent="1">
          <mxGeometry x="135" y="300" width="70" height="40" as="geometry" />
        </mxCell>
        <mxCell id="GFUR7dcZB_Q8cwkUKv_H-6" value="&lt;u&gt;kulcs&lt;/u&gt;" style="ellipse;whiteSpace=wrap;html=1;" vertex="1" parent="1">
          <mxGeometry x="445" y="300" width="70" height="40" as="geometry" />
        </mxCell>
        <mxCell id="GFUR7dcZB_Q8cwkUKv_H-7" value="tipus" style="ellipse;whiteSpace=wrap;html=1;" vertex="1" parent="1">
          <mxGeometry x="645" y="300" width="70" height="40" as="geometry" />
        </mxCell>
        <mxCell id="GFUR7dcZB_Q8cwkUKv_H-8" value="aktivalas" style="ellipse;whiteSpace=wrap;html=1;" vertex="1" parent="1">
          <mxGeometry x="545" y="300" width="70" height="40" as="geometry" />
        </mxCell>
        <mxCell id="GFUR7dcZB_Q8cwkUKv_H-9" value="" style="endArrow=none;html=1;rounded=0;entryX=0.5;entryY=1;entryDx=0;entryDy=0;" edge="1" parent="1" target="GFUR7dcZB_Q8cwkUKv_H-2">
          <mxGeometry width="50" height="50" relative="1" as="geometry">
            <mxPoint x="70" y="300" as="sourcePoint" />
            <mxPoint x="120" y="250" as="targetPoint" />
          </mxGeometry>
        </mxCell>
        <mxCell id="GFUR7dcZB_Q8cwkUKv_H-10" value="" style="endArrow=none;html=1;rounded=0;" edge="1" parent="1" target="GFUR7dcZB_Q8cwkUKv_H-2">
          <mxGeometry width="50" height="50" relative="1" as="geometry">
            <mxPoint x="170" y="300" as="sourcePoint" />
            <mxPoint x="280" y="240" as="targetPoint" />
          </mxGeometry>
        </mxCell>
        <mxCell id="GFUR7dcZB_Q8cwkUKv_H-11" value="" style="endArrow=none;html=1;rounded=0;entryX=0.5;entryY=0;entryDx=0;entryDy=0;" edge="1" parent="1" target="GFUR7dcZB_Q8cwkUKv_H-4">
          <mxGeometry width="50" height="50" relative="1" as="geometry">
            <mxPoint x="180" y="240" as="sourcePoint" />
            <mxPoint x="290" y="180" as="targetPoint" />
          </mxGeometry>
        </mxCell>
        <mxCell id="GFUR7dcZB_Q8cwkUKv_H-12" value="" style="endArrow=none;html=1;rounded=0;entryX=0.5;entryY=1;entryDx=0;entryDy=0;" edge="1" parent="1" target="GFUR7dcZB_Q8cwkUKv_H-1">
          <mxGeometry width="50" height="50" relative="1" as="geometry">
            <mxPoint x="480" y="300" as="sourcePoint" />
            <mxPoint x="590" y="240" as="targetPoint" />
          </mxGeometry>
        </mxCell>
        <mxCell id="GFUR7dcZB_Q8cwkUKv_H-13" value="" style="endArrow=none;html=1;rounded=0;" edge="1" parent="1" target="GFUR7dcZB_Q8cwkUKv_H-8">
          <mxGeometry width="50" height="50" relative="1" as="geometry">
            <mxPoint x="580" y="240" as="sourcePoint" />
            <mxPoint x="690" y="180" as="targetPoint" />
          </mxGeometry>
        </mxCell>
        <mxCell id="GFUR7dcZB_Q8cwkUKv_H-14" value="" style="endArrow=none;html=1;rounded=0;entryX=0.5;entryY=0;entryDx=0;entryDy=0;" edge="1" parent="1" target="GFUR7dcZB_Q8cwkUKv_H-7">
          <mxGeometry width="50" height="50" relative="1" as="geometry">
            <mxPoint x="580" y="240" as="sourcePoint" />
            <mxPoint x="670" y="290" as="targetPoint" />
          </mxGeometry>
        </mxCell>
        <mxCell id="GFUR7dcZB_Q8cwkUKv_H-15" value="&lt;b&gt;V-SZ&lt;/b&gt;" style="rhombus;whiteSpace=wrap;html=1;" vertex="1" parent="1">
          <mxGeometry x="340" y="170" width="80" height="80" as="geometry" />
        </mxCell>
        <mxCell id="GFUR7dcZB_Q8cwkUKv_H-16" value="" style="endArrow=classic;html=1;rounded=0;entryX=1;entryY=0.5;entryDx=0;entryDy=0;exitX=0;exitY=0.5;exitDx=0;exitDy=0;" edge="1" parent="1" source="GFUR7dcZB_Q8cwkUKv_H-15" target="GFUR7dcZB_Q8cwkUKv_H-2">
          <mxGeometry width="50" height="50" relative="1" as="geometry">
            <mxPoint x="320" y="210" as="sourcePoint" />
            <mxPoint x="440" y="210" as="targetPoint" />
          </mxGeometry>
        </mxCell>
        <mxCell id="GFUR7dcZB_Q8cwkUKv_H-17" value="" style="endArrow=classic;html=1;rounded=0;exitX=1;exitY=0.5;exitDx=0;exitDy=0;" edge="1" parent="1" source="GFUR7dcZB_Q8cwkUKv_H-15" target="GFUR7dcZB_Q8cwkUKv_H-1">
          <mxGeometry width="50" height="50" relative="1" as="geometry">
            <mxPoint x="430" y="210" as="sourcePoint" />
            <mxPoint x="480" y="160" as="targetPoint" />
          </mxGeometry>
        </mxCell>
      </root>
    </mxGraphModel>
  </diagram>
</mxfile>
